<?xml version="1.0" encoding="UTF-8"?>
<svg width="539px" height="97px" viewBox="0 0 539 97" version="1.1" xmlns="http://www.w3.org/2000/svg" xmlns:xlink="http://www.w3.org/1999/xlink">
    <!-- Generator: Sketch 47.1 (45422) - http://www.bohemiancoding.com/sketch -->
    <title>devcon7_logo_cmyk-vorne</title>
    <desc>Created with Sketch.</desc>
    <defs>
        <polygon id="path-1" points="458.2141 97 0 97 0 0.5345 458.2141 0.5345"></polygon>
    </defs>
    <g id="Page-1" stroke="none" stroke-width="1" fill="none" fill-rule="evenodd">
        <g id="Desktop" transform="translate(-399.000000, -120.000000)">
            <g id="devcon7_logo_cmyk-vorne" transform="translate(399.000000, 119.000000)">
                <g id="Page-1">
                    <g id="Group-3" transform="translate(0.000000, 0.465800)">
                        <mask id="mask-2" fill="white">
                            <use xlink:href="#path-1"></use>
                        </mask>
                        <g id="Clip-2"></g>
                        <path d="M442.2061,72.9395 C442.2061,80.9745 442.2061,80.9745 434.1711,80.9745 L426.8381,80.9745 C426.1371,80.9745 425.5711,80.2685 425.5711,80.2685 C425.5711,80.2685 395.2461,42.3605 394.7671,41.7615 C393.9971,40.7995 394.0051,41.3445 393.9971,41.7595 L393.9971,72.9395 C393.9971,80.9745 393.9971,80.9745 385.9631,80.9745 C377.9281,80.9745 377.9281,80.9745 377.9281,72.9395 L377.9281,24.7305 C377.9281,16.6955 377.9281,16.6955 385.9631,16.6955 L393.2881,16.6955 C394.0041,16.6955 394.5621,17.4015 394.5621,17.4015 C394.5621,17.4015 424.5891,54.9615 425.3681,55.9095 C426.1461,56.8565 426.1371,56.4355 426.1371,55.8965 L426.1371,24.7305 C426.1371,16.6955 426.1371,16.6955 434.1711,16.6955 C442.2061,16.6955 442.2061,16.6955 442.2061,24.7305 L442.2061,72.9395 Z M369.8071,64.8645 C369.8071,72.8995 361.7711,80.9345 353.7371,80.9345 L321.5981,80.9345 C313.5621,80.9345 305.5281,72.8995 305.5281,64.8645 L305.5281,32.7255 C305.5281,24.6905 313.1611,16.6565 321.5981,16.6565 L353.7371,16.6565 C361.7711,16.6565 369.8071,24.6905 369.8071,32.7255 L369.8071,64.8645 Z M257.3141,64.8645 L289.4541,64.8645 C297.4881,64.8645 297.4881,64.8645 297.4881,72.8995 C297.4881,80.9345 297.4881,80.9345 289.4541,80.9345 L249.2791,80.9345 C241.2451,80.9345 233.2101,72.8995 233.2101,64.8645 L233.2101,32.7255 C233.2101,24.6905 240.8431,16.6565 249.2791,16.6565 L289.4541,16.6565 C297.4881,16.6565 297.4881,16.6565 297.4881,24.6905 C297.4881,32.7255 297.4881,32.7255 289.4541,32.7255 L257.3141,32.7255 C249.2791,32.7255 249.2791,32.7255 249.2791,40.7595 L249.2791,56.8305 C249.2791,64.8645 249.2791,64.8645 257.3141,64.8645 L257.3141,64.8645 Z M225.0891,32.7305 C225.0891,56.8345 209.0191,80.9395 192.9491,80.9395 C176.8801,80.9395 160.8101,56.8345 160.8101,32.7305 L160.8101,24.6955 C160.8101,16.6605 160.8101,16.6605 168.8451,16.6605 C176.8801,16.6605 176.8801,16.6605 176.8801,24.6955 C176.8801,48.7995 184.9151,64.8695 192.9491,64.8695 C200.9841,64.8695 209.0191,48.7995 209.0191,24.6955 C209.0191,16.6605 209.0191,16.6605 217.0541,16.6605 C225.0891,16.6605 225.0891,16.6605 225.0891,24.6955 L225.0891,32.7305 Z M112.5561,40.7995 L144.6951,40.7995 C152.7291,40.7995 152.7291,40.7995 152.7291,48.8355 C152.7291,56.8705 152.7291,56.8705 144.6951,56.8705 L112.5561,56.8705 C104.5211,56.8705 104.5211,64.9045 112.5561,64.9045 L144.6951,64.9045 C152.7291,64.9045 152.7291,64.9045 152.7291,72.9395 C152.7291,80.9745 152.7291,80.9745 144.6951,80.9745 L104.5211,80.9745 C96.4861,80.9745 88.4511,72.9395 88.4511,64.9045 L88.4511,32.7655 C88.4511,24.7305 96.4861,16.6955 104.5211,16.6955 L144.6951,16.6955 C152.7291,16.6955 152.7291,16.6955 152.7291,24.7305 C152.7291,32.7655 152.7291,32.7655 144.6951,32.7655 L112.5561,32.7655 C104.5211,32.7655 104.5211,40.7995 112.5561,40.7995 L112.5561,40.7995 Z M80.4121,64.8645 C80.4121,72.8995 72.3771,80.9345 64.3431,80.9345 L24.1681,80.9345 C16.1341,80.9345 16.1341,80.9345 16.1341,72.8995 L16.1341,24.6905 C16.1341,16.6565 16.1341,16.6565 24.1681,16.6565 L64.3431,16.6565 C72.3771,16.6565 80.4121,24.6905 80.4121,32.7255 L80.4121,64.8645 Z M450.1761,0.5345 C442.1371,0.5345 16.0781,0.5355 8.0391,0.5345 C0.0011,0.5345 -0.0009,0.5345 0.0001,8.5735 C0.0011,16.6115 -0.0009,80.9225 0.0001,88.9605 C0.0011,97.0005 0.0011,96.9995 8.0391,97.0005 L450.1761,97.0005 C458.2141,97.0005 458.2141,96.9995 458.2141,88.9605 L458.2141,8.5725 C458.2141,0.5345 458.2161,0.5355 450.1761,0.5345 L450.1761,0.5345 Z" id="Fill-1" fill="#FEFEFE" mask="url(#mask-2)"></path>
                    </g>
                    <path d="M48.2725,33.1914 L40.2375,33.1914 C32.2035,33.1914 32.2035,33.1914 32.2035,41.2254 L32.2035,57.2954 C32.2035,65.3304 32.2015,65.3304 40.2375,65.3304 L48.2725,65.3304 C56.3075,65.3304 64.3425,65.3304 64.3425,49.2604 C64.3425,33.1914 56.3075,33.1914 48.2725,33.1914" id="Fill-4" fill="#FEFEFE"></path>
                    <path d="M345.7022,33.1914 L329.6332,33.1914 C321.5982,33.1914 321.5982,33.1914 321.5982,41.2254 L321.5982,57.2954 C321.5982,65.3304 321.5982,65.3304 329.6332,65.3304 L345.7022,65.3304 C353.7372,65.3304 353.7372,65.3304 353.7372,57.2954 L353.7372,41.2254 C353.7372,33.1914 353.7372,33.1914 345.7022,33.1914" id="Fill-6" fill="#FEFEFE"></path>
                    <path d="M512.9219,33.1054 L482.6149,33.1054 C474.5909,33.1054 474.5909,33.1054 474.5909,25.0814 C474.5909,17.0554 474.5909,17.0554 482.6149,17.0554 L530.7649,17.0554 C538.7899,17.0554 538.7899,17.0554 538.7899,25.0814 L538.7899,28.5834 C538.7359,33.0434 538.7359,33.0934 535.1009,37.5334 L501.7469,77.5564 C498.6649,81.2544 498.4359,81.2544 494.6769,81.2544 L476.1939,81.2544 C474.6139,81.2544 474.2569,81.3814 475.5959,80.0434 C481.5769,72.8274 512.2689,35.8134 513.4129,34.6684 C515.0519,32.9184 515.1779,33.0694 512.9219,33.1054" id="Fill-8" fill="#FEFEFE"></path>
                </g>
            </g>
        </g>
    </g>
</svg>